<?xml version="1.0" standalone="no"?>
<!DOCTYPE svg PUBLIC "-//W3C//DTD SVG 20010904//EN"
 "http://www.w3.org/TR/2001/REC-SVG-20010904/DTD/svg10.dtd">
<svg version="1.0" xmlns="http://www.w3.org/2000/svg"
 width="736.000000pt" height="736.000000pt" viewBox="0 0 736.000000 736.000000"
 preserveAspectRatio="xMidYMid meet">
<metadata>
Created by potrace 1.14, written by Peter Selinger 2001-2017
</metadata>
<g transform="translate(0.000000,736.000000) scale(0.100000,-0.100000)"
fill="#000000" stroke="none">
<path d="M1035 7350 c572 -3 1042 -7 1045 -8 3 -1 -2 -7 -10 -12 -12 -8 -10
-10 10 -10 18 0 21 -3 11 -9 -11 -7 -10 -10 5 -14 17 -4 17 -5 -1 -6 -17 -1
-23 -12 -34 -61 -8 -37 -11 -77 -6 -107 4 -26 7 -76 6 -110 -1 -34 5 -80 12
-101 9 -26 11 -47 4 -63 -12 -32 -31 -676 -31 -1089 -1 -184 -5 -342 -10 -350
-5 -8 3 -4 17 9 15 13 29 32 32 42 3 9 12 20 21 23 8 3 -12 -29 -44 -72 -184
-242 -361 -589 -474 -927 -22 -66 -48 -135 -58 -155 -38 -74 -119 -311 -153
-445 -63 -246 -72 -329 -71 -620 0 -275 13 -396 55 -508 l19 -52 -3 90 c-4 92
18 453 27 462 2 3 36 -2 74 -11 38 -9 102 -19 143 -22 41 -4 81 -11 91 -15 9
-5 26 -37 38 -71 19 -55 23 -91 27 -277 6 -230 -1 -315 -43 -552 -36 -202 -76
-330 -120 -392 -107 -148 -235 -307 -352 -437 -89 -99 -127 -148 -119 -153 8
-6 5 -7 -7 -3 -14 5 -45 -20 -129 -100 -61 -58 -133 -123 -161 -143 -129 -95
-232 -244 -256 -369 -29 -147 6 -246 130 -368 44 -44 80 -86 80 -96 0 -9 -21
-64 -46 -123 -25 -59 -43 -109 -41 -111 2 -3 23 39 45 93 74 178 279 576 326
633 91 112 122 144 181 187 54 41 115 73 136 73 5 0 10 -147 11 -327 1 -278 3
-303 8 -168 4 88 3 324 -2 525 -4 201 -5 379 -2 397 7 36 24 46 62 37 29 -7
77 -47 94 -78 33 -62 64 -275 71 -491 2 -76 3 -71 5 34 l2 124 112 -6 c61 -4
113 -8 115 -10 2 -3 -15 -55 -37 -118 -63 -179 -55 -289 36 -478 25 -51 42
-97 37 -101 -11 -11 -197 -80 -216 -80 -8 0 -17 -6 -20 -14 -3 -8 36 2 110 30
121 46 261 84 311 84 42 0 69 -26 91 -90 19 -54 19 -55 0 -58 -23 -4 -15 -22
9 -22 18 0 95 -74 126 -120 9 -13 16 -35 16 -47 l0 -23 173 0 174 0 -4 82 -3
83 15 -50 c8 -27 18 -62 21 -78 4 -15 11 -30 17 -34 12 -7 9 6 -28 142 -21 78
-29 130 -32 235 -3 74 -3 133 0 130 10 -9 66 -254 81 -350 8 -52 14 -79 15
-60 1 52 -26 197 -66 350 -33 127 -35 144 -34 295 0 191 9 367 22 415 5 19 28
56 52 83 51 55 61 56 187 24 83 -21 85 -23 88 -54 2 -18 -4 -43 -13 -57 -20
-30 -27 -28 -120 43 -33 25 -54 38 -47 29 7 -9 61 -51 120 -92 59 -42 91 -63
72 -46 -33 29 -34 31 -18 58 22 38 27 79 29 225 1 70 4 129 8 131 4 3 45 -11
92 -31 111 -46 354 -129 404 -137 22 -4 51 -3 63 1 17 7 10 9 -30 9 -34 1 -99
16 -182 43 -535 177 -926 450 -995 696 -6 22 -18 110 -26 195 -13 130 -39 305
-62 410 l-5 25 17 -25 c24 -33 117 -130 126 -130 4 0 -6 27 -21 59 -125 258
-161 414 -152 654 l4 108 42 21 c22 11 62 36 89 54 48 34 67 41 67 25 0 -12
-28 -41 -40 -41 -21 0 -130 -92 -130 -109 0 -23 69 -168 99 -208 l20 -28 -6
90 -6 91 33 28 c47 39 116 72 181 85 46 10 70 9 130 -3 83 -18 242 -92 298
-140 l35 -31 -21 30 c-12 17 -42 50 -67 75 -29 28 -48 56 -52 77 -6 32 -8 33
-43 27 -48 -8 -109 22 -147 71 -31 41 -41 44 -46 13 -3 -22 -8 -23 -94 -26
-78 -2 -93 0 -108 16 -16 19 -14 21 51 73 37 29 123 107 190 172 l123 120 37
-11 c46 -14 54 -9 13 8 -35 15 -38 30 -9 56 26 23 142 167 233 289 39 52 67
82 70 74 6 -19 21 -684 18 -784 -2 -44 -10 -112 -18 -152 -20 -97 -88 -303
-123 -375 -16 -32 -27 -58 -25 -58 2 0 36 32 75 71 82 82 162 183 214 270 20
32 40 57 45 54 4 -3 11 -21 15 -41 3 -20 8 -34 11 -32 2 3 -1 28 -7 56 -11 47
-10 53 16 99 16 26 45 71 66 100 125 169 292 475 377 688 48 120 113 322 137
425 10 41 20 70 21 65 106 -349 144 -455 215 -604 27 -57 48 -105 47 -106 -2
-1 -16 -7 -33 -13 -30 -11 -30 -11 7 -6 36 6 36 5 76 -63 56 -96 125 -187 201
-267 l66 -69 -73 6 c-49 4 -84 13 -107 27 -37 23 -55 20 -55 -9 0 -27 -138
-75 -190 -66 -36 6 -37 5 -33 -20 5 -21 -5 -36 -49 -83 -58 -60 -94 -110 -86
-117 2 -3 45 16 94 42 270 141 449 159 599 59 99 -65 131 -132 116 -237 -5
-35 -12 -73 -16 -84 l-8 -20 16 20 c9 11 17 25 17 30 0 6 8 19 16 30 15 18 15
14 9 -55 -24 -268 -135 -755 -186 -816 -6 -8 -9 -14 -6 -14 14 0 134 173 166
240 l36 75 6 -125 c9 -211 12 -203 -107 -338 -136 -155 -263 -268 -449 -398
-208 -146 -319 -203 -560 -286 -77 -27 -124 -46 -105 -42 100 18 370 130 518
214 39 23 72 36 72 30 0 -6 -18 -75 -41 -153 -83 -287 -131 -490 -134 -572 -2
-44 -1 -64 1 -45 11 96 16 121 20 117 3 -3 16 -36 30 -74 28 -78 21 -29 -8 60
-11 33 -17 61 -15 64 6 5 83 -102 122 -170 15 -26 29 -47 31 -47 9 0 -26 63
-83 148 -35 51 -63 96 -63 99 0 4 9 42 21 85 15 55 26 78 37 78 30 0 177 -79
209 -112 17 -18 50 -62 72 -98 22 -36 61 -98 86 -139 40 -64 46 -81 50 -142 3
-38 2 -69 -2 -69 -4 0 -18 12 -31 28 -18 22 -18 18 5 -17 l28 -44 0 -298 0
-299 343 0 c188 0 342 1 342 3 0 1 -20 101 -45 222 -27 133 -47 260 -50 320
-3 55 -8 144 -10 199 l-5 98 67 -6 c290 -29 522 -169 662 -400 45 -75 73 -148
118 -304 l38 -132 104 0 c94 0 103 2 96 17 -83 214 -217 621 -285 868 -44 161
-90 348 -86 352 1 1 26 -39 56 -90 72 -124 254 -409 304 -477 22 -30 57 -78
78 -106 60 -80 173 -383 193 -517 l7 -47 184 0 183 0 -17 38 c-20 41 -50 91
-133 220 -104 162 -300 505 -415 727 -153 295 -200 416 -288 740 -56 207 -100
470 -126 750 -12 135 -16 480 -12 1000 2 266 -1 379 -13 471 -15 121 -41 285
-51 315 -3 12 11 28 46 53 93 67 145 178 145 312 0 73 -3 87 -38 156 -41 85
-79 122 -181 182 l-64 38 -8 61 c-10 89 -7 391 6 494 32 258 117 488 258 698
63 94 215 265 236 265 7 0 28 -16 47 -36 152 -157 409 -179 599 -53 145 97
229 289 200 458 -26 157 -122 287 -262 355 -195 95 -407 53 -558 -111 l-61
-66 -52 15 c-340 104 -743 124 -1140 58 -153 -26 -420 -97 -557 -149 -196 -73
-235 -89 -353 -146 -225 -108 -473 -250 -679 -392 l-77 -53 -133 78 c-148 87
-218 132 -203 132 6 0 3 5 -5 10 -13 9 -13 10 0 10 12 0 12 2 2 9 -16 9 -24
416 -9 466 20 69 33 153 31 193 -1 23 -1 43 0 44 0 2 978 5 2171 8 1747 4
1451 5 -1515 5 -2027 0 -3217 -2 -2645 -5z m5758 -160 c181 -89 268 -293 209
-486 -71 -231 -335 -349 -553 -247 -79 37 -126 77 -172 146 -152 229 -29 548
238 618 17 5 71 7 121 5 78 -3 99 -7 157 -36z m-3870 -663 c47 -21 497 -280
787 -452 58 -34 560 -327 1115 -650 556 -323 1029 -603 1052 -622 25 -20 53
-57 70 -91 107 -218 -108 -476 -341 -408 -56 17 -135 61 -731 411 -170 100
-740 433 -1265 740 -525 307 -968 570 -983 584 -158 145 -98 447 101 512 44
14 137 3 195 -24z m-158 -662 c84 -51 80 -46 56 -58 -232 -128 -440 -308 -624
-541 -183 -231 -327 -456 -460 -721 -73 -146 -92 -186 -117 -252 l-12 -31 -21
21 c-14 14 -17 22 -8 25 9 3 9 7 0 18 -10 12 -14 10 -25 -11 -7 -14 -11 -33
-8 -43 5 -14 4 -14 -4 -3 -8 11 -13 4 -23 -30 -13 -43 -49 -113 -49 -95 0 11
104 260 126 301 113 212 169 313 179 325 6 8 15 23 18 33 4 10 11 15 17 12 5
-3 8 0 5 7 -6 16 53 111 64 104 5 -3 8 2 7 12 0 9 5 16 12 14 8 -1 11 2 7 8
-3 5 8 30 25 55 24 34 35 43 44 36 9 -8 13 -7 13 4 0 8 -4 12 -9 9 -21 -13 -1
18 80 125 89 119 107 145 80 124 -8 -7 -19 -9 -23 -5 -5 4 -5 2 -2 -4 3 -6 -7
-26 -22 -45 -15 -19 -72 -95 -125 -169 -54 -74 -99 -133 -101 -130 -2 3 -12
-3 -22 -13 -11 -9 -23 -14 -28 -10 -4 5 -5 2 -1 -5 6 -11 12 -10 27 4 23 21
24 12 2 -22 -12 -19 -18 -22 -25 -12 -6 9 -7 6 -3 -9 5 -18 2 -21 -13 -18 -11
2 -19 -2 -19 -11 0 -10 4 -11 14 -3 21 18 16 6 -42 -87 -30 -49 -68 -114 -84
-144 -17 -30 -30 -52 -31 -49 0 11 70 189 107 271 20 44 40 75 46 71 6 -3 7
-1 3 6 -10 15 189 374 223 401 3 3 38 48 77 100 84 112 183 214 262 270 125
88 200 136 267 172 64 34 72 36 93 22 12 -7 33 -21 47 -29z m842 -816 c-7 -85
-34 -199 -48 -199 -15 0 -21 88 -9 146 15 74 39 134 53 134 6 0 8 -28 4 -81z
m-390 -80 c-6 -76 -45 -179 -59 -157 -13 20 2 148 23 196 27 63 43 46 36 -39z
m-290 31 c-7 -55 -39 -130 -55 -130 -7 0 -10 -4 -7 -10 3 -5 -1 -10 -11 -10
-13 0 -15 6 -10 31 3 17 6 44 6 60 0 26 55 99 75 99 4 0 5 -18 2 -40z m-789
-72 c-12 -55 -67 -158 -84 -158 -39 0 9 150 59 185 32 23 36 19 25 -27z m261
-41 c-5 -20 -14 -39 -19 -42 -14 -9 -13 62 1 87 18 33 31 0 18 -45z m2061 -29
c0 -23 -20 -34 -31 -17 -5 8 -9 24 -9 37 0 20 2 21 20 10 11 -7 20 -20 20 -30z
m-2735 -734 c-24 -99 -51 -220 -61 -270 -32 -174 -32 -173 -107 -174 -16 0
-26 -4 -22 -10 3 -5 25 -7 50 -3 l45 6 -1 -109 c-1 -96 2 -117 25 -178 15 -38
25 -70 23 -73 -7 -7 -267 -16 -267 -9 0 3 11 57 24 119 42 191 111 404 193
592 42 97 137 293 140 290 1 0 -18 -82 -42 -181z m-151 140 c3 -8 2 -12 -4 -9
-6 3 -10 10 -10 16 0 14 7 11 14 -7z m4250 -11 c9 -30 34 -191 48 -303 13
-111 16 -418 8 -970 -4 -320 -9 -333 -25 -75 -2 39 -7 81 -10 95 -5 19 -4 22
4 10 9 -13 14 -9 13 10 0 3 -3 41 -5 85 -4 55 -3 69 3 45 5 -23 7 5 5 85 -2
68 0 124 6 131 11 14 1 46 -13 38 -5 -3 -7 -12 -4 -19 2 -7 1 -26 -4 -42 -7
-22 -9 -11 -9 47 1 96 -2 109 -12 40 -6 -47 -7 -42 -5 33 1 48 -1 90 -6 93 -4
3 -9 -19 -9 -48 l-2 -53 -8 45 c-4 25 -8 75 -8 113 -1 37 -5 67 -11 67 -5 0
-7 8 -3 18 4 12 3 14 -5 7 -6 -5 -12 -26 -15 -45 -3 -32 -4 -31 -6 10 -1 25
-12 109 -24 187 -14 84 -18 139 -12 135 5 -3 4 1 -2 9 -11 14 -53 191 -53 223
0 6 30 19 68 28 89 21 90 21 96 1z m-4239 -40 c-16 -38 -34 -63 -20 -28 4 11
8 27 8 35 0 12 14 29 25 30 1 0 -5 -17 -13 -37z m-48 -25 c-3 -8 -6 -5 -6 6
-1 11 2 17 5 13 3 -3 4 -12 1 -19z m-77 -95 c-11 -17 -11 -17 -6 0 3 10 6 24
7 30 0 9 2 9 5 0 3 -7 0 -20 -6 -30z m-29 -99 c-11 -38 -25 -89 -31 -113 -6
-23 -13 -41 -15 -39 -3 2 7 47 21 99 36 130 36 130 41 125 2 -2 -5 -35 -16
-72z m-50 -195 c-5 -13 -10 -19 -10 -12 -1 15 10 45 15 40 3 -2 0 -15 -5 -28z
m-14 -61 c-3 -7 -5 -2 -5 12 0 14 2 19 5 13 2 -7 2 -19 0 -25z m-12 -73 c-3
-26 -8 -45 -11 -43 -2 3 -1 26 2 52 4 25 9 44 12 42 2 -3 1 -26 -3 -51z m4418
-140 c4 -54 4 -61 -3 -30 -9 40 -13 112 -6 104 2 -2 6 -35 9 -74z m-4423 -20
c0 -5 -5 -3 -10 5 -5 8 -10 20 -10 25 0 6 5 3 10 -5 5 -8 10 -19 10 -25z m-23
-57 c-2 -13 -4 -5 -4 17 -1 22 1 32 4 23 2 -10 2 -28 0 -40z m4450 -130 c-2
-24 -4 -5 -4 42 0 47 2 66 4 43 2 -24 2 -62 0 -85z m20 50 c-3 -8 -6 -5 -6 6
-1 11 2 17 5 13 3 -3 4 -12 1 -19z m-408 -44 c56 -40 110 -221 118 -400 9
-175 -14 -234 -154 -402 -58 -69 -169 -169 -177 -161 -3 2 2 39 10 82 14 73
18 81 68 130 29 29 66 70 81 92 24 34 21 32 -16 -10 -79 -90 -119 -123 -119
-96 0 4 23 38 51 75 l51 66 -3 77 c-3 60 -10 91 -32 136 -28 56 -29 59 -15
114 20 83 38 81 38 -4 0 -69 25 -133 52 -133 6 0 1 12 -13 26 -20 22 -24 38
-28 105 -2 62 1 85 14 105 13 21 19 23 31 13 24 -19 36 -49 44 -103 l8 -51 1
45 c1 50 -33 123 -60 128 -9 2 -33 -14 -53 -35 l-37 -38 7 95 c7 101 12 113
59 142 37 22 44 22 74 2z m418 -36 c-3 -7 -5 -2 -5 12 0 14 2 19 5 13 2 -7 2
-19 0 -25z m42 6 c1 11 3 17 6 14 4 -3 3 -18 -1 -34 -6 -25 -8 -26 -15 -9 -11
28 -10 55 1 30 8 -19 9 -19 9 -1z m8 -86 c-3 -7 -5 -2 -5 12 0 14 2 19 5 13 2
-7 2 -19 0 -25z m-70 -150 c-2 -35 -3 -9 -3 57 0 66 1 94 3 63 2 -32 2 -86 0
-120z m-3957 -122 c0 -6 -9 6 -20 27 -11 20 -20 43 -20 49 1 15 40 -61 40 -76z
m3967 -68 c-2 -18 -4 -4 -4 32 0 36 2 50 4 33 2 -18 2 -48 0 -65z m30 70 c-3
-8 -6 -5 -6 6 -1 11 2 17 5 13 3 -3 4 -12 1 -19z m-553 -81 c9 -26 16 -72 16
-101 0 -46 -5 -60 -36 -100 -20 -26 -38 -46 -40 -44 -1 2 4 72 13 156 9 84 20
149 24 145 4 -5 14 -30 23 -56z m-3467 -159 c-2 -35 -3 -7 -3 62 0 69 1 97 3
63 2 -35 2 -91 0 -125z m4051 42 l-1 -55 -7 60 c-4 33 -7 54 -8 46 -1 -8 -4
-12 -7 -9 -3 3 -2 13 1 22 12 31 24 -4 22 -64z m-38 -44 c0 -26 -6 -18 -14 19
-5 22 -4 26 4 15 5 -8 10 -24 10 -34z m-3 -88 c-3 -7 -5 -2 -5 12 0 14 2 19 5
13 2 -7 2 -19 0 -25z m-4013 -44 c3 -8 2 -12 -4 -9 -6 3 -10 10 -10 16 0 14 7
11 14 -7z m4100 -218 c7 -26 -17 -49 -34 -33 -10 10 -12 6 -8 -15 3 -16 1 -28
-4 -28 -5 0 -8 12 -6 28 2 19 8 26 21 24 19 -3 21 20 9 166 -4 46 -5 86 -2 89
3 2 8 -44 12 -104 4 -59 9 -116 12 -127z m-77 192 c-3 -8 -6 -5 -6 6 -1 11 2
17 5 13 3 -3 4 -12 1 -19z m30 0 c-3 -8 -6 -5 -6 6 -1 11 2 17 5 13 3 -3 4
-12 1 -19z m-15 -108 c3 -47 2 -72 -2 -55 -8 30 -13 152 -6 144 2 -2 6 -42 8
-89z m25 58 c-3 -8 -6 -5 -6 6 -1 11 2 17 5 13 3 -3 4 -12 1 -19z m-4087 -97
c-11 -76 -29 -145 -35 -139 -2 2 5 46 16 98 10 52 19 109 20 125 1 20 3 24 6
11 3 -11 0 -54 -7 -95z m4138 -166 c0 -29 -1 -29 -8 5 -4 19 -8 40 -10 45 -1
6 -1 15 0 20 4 17 18 -39 18 -70z m-4183 -40 c-7 -28 -14 -43 -14 -35 -1 19
19 93 24 88 2 -2 -2 -26 -10 -53z m4132 23 c-3 -7 -5 -2 -5 12 0 14 2 19 5 13
2 -7 2 -19 0 -25z m60 -55 c-3 -10 -5 -4 -5 12 0 17 2 24 5 18 2 -7 2 -21 0
-30z m-38 -47 c2 -45 -6 -27 -12 29 -4 34 -3 42 3 25 4 -14 8 -38 9 -54z m48
-8 c-3 -8 -6 -5 -6 6 -1 11 2 17 5 13 3 -3 4 -12 1 -19z m-4240 -60 c-3 -8 -6
-5 -6 6 -1 11 2 17 5 13 3 -3 4 -12 1 -19z m4224 -89 c12 -57 23 -115 25 -129
9 -58 -17 40 -36 135 -22 112 -22 110 -15 103 3 -3 15 -52 26 -109z m39 27 c0
-26 -6 -18 -14 19 -5 22 -4 26 4 15 5 -8 10 -24 10 -34z m-4293 -53 c-3 -10
-5 -4 -5 12 0 17 2 24 5 18 2 -7 2 -21 0 -30z m4300 -15 c-3 -8 -6 -5 -6 6 -1
11 2 17 5 13 3 -3 4 -12 1 -19z m-4327 -85 c-12 -26 -33 -82 -46 -123 -13 -41
-31 -86 -40 -100 -18 -29 -18 -30 38 125 22 61 45 125 52 143 6 18 12 26 14
18 2 -8 -6 -37 -18 -63z m-29 48 c-6 -10 -7 -22 -3 -26 4 -5 2 -5 -4 -2 -11 6
-51 -41 -121 -140 -14 -21 -23 -30 -20 -20 6 17 148 207 154 207 2 0 -1 -8 -6
-19z m4366 -3 c-3 -8 -6 -5 -6 6 -1 11 2 17 5 13 3 -3 4 -12 1 -19z m31 -118
c0 -9 -3 -7 -8 5 -5 11 -8 29 -8 40 0 16 2 15 8 -5 4 -14 8 -32 8 -40z m-29
-45 c0 -11 -7 0 -15 25 -7 25 -13 50 -13 55 1 18 27 -59 28 -80z m-4418 12
c-10 -9 -11 -8 -5 6 3 10 9 15 12 12 3 -3 0 -11 -7 -18z m4456 -9 c-3 -8 -6
-5 -6 6 -1 11 2 17 5 13 3 -3 4 -12 1 -19z m-4596 -82 c-21 -21 -30 -39 -26
-47 5 -7 4 -10 -2 -6 -13 8 -76 -60 -68 -73 3 -6 -1 -7 -10 -4 -12 5 -7 16 27
53 24 25 56 63 73 83 16 20 32 34 34 32 3 -2 -10 -20 -28 -38z m4598 -55 c0
-9 -7 0 -14 19 -18 47 -18 74 0 31 8 -18 15 -41 14 -50z m48 -33 c-3 -8 -6 -5
-6 6 -1 11 2 17 5 13 3 -3 4 -12 1 -19z m-28 -33 c0 -5 -4 -3 -9 5 -5 8 -9 22
-9 30 0 16 17 -16 18 -35z m-4739 -18 c0 -2 -15 -16 -32 -33 l-33 -29 29 33
c28 30 36 37 36 29z m4787 -19 c-3 -8 -6 -5 -6 6 -1 11 2 17 5 13 3 -3 4 -12
1 -19z m-4847 -51 c0 -2 -19 -21 -42 -42 l-43 -40 40 43 c36 39 45 47 45 39z
m4850 -32 c0 -5 -5 -3 -10 5 -5 8 -10 20 -10 25 0 6 5 3 10 -5 5 -8 10 -19 10
-25z m18 -46 c-3 -8 -7 -3 -11 10 -4 17 -3 21 5 13 5 -5 8 -16 6 -23z m-4767
-144 c-133 -249 -189 -345 -252 -431 -37 -49 -91 -134 -120 -189 l-53 -99 -14
34 c-25 60 -11 235 26 350 32 95 32 95 114 167 46 40 141 131 213 203 126 127
130 129 137 103 6 -22 -4 -48 -51 -138z m-171 110 c-7 -8 -17 -15 -23 -15 -6
0 -2 7 9 15 25 19 30 19 14 0z m-50 -10 c-7 -9 -27 -25 -44 -37 -23 -15 -21
-11 9 16 43 38 55 45 35 21z m-59 -82 c13 -16 12 -17 -3 -4 -10 7 -18 15 -18
17 0 8 8 3 21 -13z m-111 -66 c0 -2 -12 -14 -27 -28 l-28 -24 24 28 c23 25 31
32 31 24z m-60 -61 c0 -2 -17 -16 -37 -31 l-38 -27 33 31 c30 29 42 37 42 27z
m3683 -185 c8 -8 21 -91 13 -91 -5 0 -66 95 -66 104 0 8 41 -2 53 -13z m-3902
-44 c-10 -9 -11 -8 -5 6 3 10 9 15 12 12 3 -3 0 -11 -7 -18z m6024 -563 c9
-15 12 -23 6 -20 -11 7 -35 46 -28 46 3 0 12 -12 22 -26z"/>
<path d="M1720 4759 c-7 -11 -10 -23 -7 -25 2 -2 9 7 15 21 14 30 7 33 -8 4z"/>
<path d="M1660 4531 c0 -17 18 -21 24 -6 3 9 0 15 -9 15 -8 0 -15 -4 -15 -9z"/>
<path d="M1637 4504 c-6 -12 19 -35 28 -26 4 4 4 -7 0 -23 l-7 -30 14 25 c12
22 12 26 -1 34 -9 5 -19 14 -22 19 -4 5 -9 5 -12 1z"/>
<path d="M1591 4410 c-17 -39 -19 -55 -11 -70 6 -11 16 -20 23 -20 7 0 6 -4
-3 -10 -12 -7 -12 -12 -2 -22 9 -9 12 -9 13 3 3 32 6 169 4 169 -2 0 -12 -23
-24 -50z"/>
<path d="M1632 4428 c-12 -15 -12 -89 1 -81 4 3 7 15 6 26 -1 12 2 30 6 40 9
22 1 32 -13 15z"/>
<path d="M5732 3960 c0 -14 2 -19 5 -12 2 6 2 18 0 25 -3 6 -5 1 -5 -13z"/>
<path d="M5751 3864 c0 -11 3 -14 6 -6 3 7 2 16 -1 19 -3 4 -6 -2 -5 -13z"/>
<path d="M5740 3820 c0 -11 2 -20 4 -20 2 0 6 9 9 20 3 11 1 20 -4 20 -5 0 -9
-9 -9 -20z"/>
<path d="M5872 3590 c0 -14 2 -19 5 -12 2 6 2 18 0 25 -3 6 -5 1 -5 -13z"/>
<path d="M5855 3430 c3 -5 8 -10 11 -10 2 0 4 5 4 10 0 6 -5 10 -11 10 -5 0
-7 -4 -4 -10z"/>
<path d="M5375 2734 c-9 -15 -12 -23 -6 -20 11 7 35 46 28 46 -3 0 -12 -12
-22 -26z"/>
<path d="M90 4577 c0 -2 15 -16 33 -33 l32 -29 -29 33 c-28 30 -36 37 -36 29z"/>
<path d="M3945 3840 c-3 -6 1 -7 9 -4 18 7 21 14 7 14 -6 0 -13 -4 -16 -10z"/>
<path d="M2758 3553 c12 -2 30 -2 40 0 9 3 -1 5 -23 4 -22 0 -30 -2 -17 -4z"/>
<path d="M2828 3543 c6 -2 18 -2 25 0 6 3 1 5 -13 5 -14 0 -19 -2 -12 -5z"/>
<path d="M2913 3520 c27 -10 56 -24 64 -32 14 -11 15 -11 9 1 -10 15 -84 51
-106 50 -8 0 7 -8 33 -19z"/>
<path d="M3015 3460 c10 -11 20 -20 23 -20 3 0 -3 9 -13 20 -10 11 -20 20 -23
20 -3 0 3 -9 13 -20z"/>
<path d="M4295 3360 c-56 -28 -104 -76 -129 -129 -18 -40 -21 -64 -21 -176 0
-149 5 -163 80 -259 44 -57 53 -64 78 -59 20 4 27 2 27 -11 0 -20 14 -20 45 0
22 14 26 14 50 -2 25 -16 27 -16 53 8 15 14 43 35 63 46 68 41 118 141 74 150
-26 5 -45 21 -45 38 0 25 39 54 71 54 l32 0 -6 79 c-6 97 -30 154 -86 204 -84
76 -201 99 -286 57z m194 -486 c26 -19 23 -49 -11 -97 l-21 -30 -81 6 c-92 7
-116 24 -116 83 0 45 19 53 120 54 63 0 92 -4 109 -16z"/>
<path d="M2715 3314 c-49 -25 -122 -104 -144 -153 -41 -97 -36 -243 14 -340
21 -43 100 -131 116 -131 4 0 11 5 14 10 11 17 43 11 50 -10 8 -26 23 -25 53
2 l23 23 18 -23 c16 -22 18 -22 31 -7 8 10 23 21 35 25 12 6 -22 9 -91 9 -121
1 -127 4 -137 58 -11 55 7 63 142 63 102 0 120 -3 134 -18 24 -26 21 -68 -5
-86 -22 -15 -22 -16 -2 -16 11 0 34 15 51 33 59 62 70 111 28 121 -42 11 -34
43 19 80 19 13 19 18 8 80 -26 138 -86 242 -163 282 -38 19 -156 18 -194 -2z"/>
<path d="M111 2754 c0 -11 3 -14 6 -6 3 7 2 16 -1 19 -3 4 -6 -2 -5 -13z"/>
<path d="M91 2654 c0 -11 3 -14 6 -6 3 7 2 16 -1 19 -3 4 -6 -2 -5 -13z"/>
<path d="M81 2614 c0 -11 3 -14 6 -6 3 7 2 16 -1 19 -3 4 -6 -2 -5 -13z"/>
<path d="M3290 2016 c0 -2 8 -10 18 -17 15 -13 16 -12 3 4 -13 16 -21 21 -21
13z"/>
<path d="M3915 1974 c-19 -15 -22 -21 -9 -15 18 9 52 41 43 41 -2 0 -17 -12
-34 -26z"/>
<path d="M4240 1118 c0 -2 26 -26 58 -53 31 -27 48 -39 37 -26 -21 24 -95 86
-95 79z"/>
<path d="M3260 916 c0 -2 8 -10 18 -17 15 -13 16 -12 3 4 -13 16 -21 21 -21
13z"/>
<path d="M4435 850 c9 -16 18 -30 21 -30 2 0 -2 14 -11 30 -9 17 -18 30 -21
30 -2 0 2 -13 11 -30z"/>
<path d="M4396 793 c-6 -14 -5 -15 5 -6 7 7 10 15 7 18 -3 3 -9 -2 -12 -12z"/>
<path d="M1653 755 c-1 -27 3 -79 7 -115 7 -61 7 -62 7 -15 1 28 -3 79 -7 115
-7 61 -7 62 -7 15z"/>
<path d="M3435 780 c10 -11 20 -20 23 -20 3 0 -3 9 -13 20 -10 11 -20 20 -23
20 -3 0 3 -9 13 -20z"/>
<path d="M4161 774 c0 -11 3 -14 6 -6 3 7 2 16 -1 19 -3 4 -6 -2 -5 -13z"/>
<path d="M4479 775 c5 -11 17 -29 26 -40 l16 -20 -10 20 c-5 11 -17 29 -26 40
l-16 20 10 -20z"/>
<path d="M4172 730 c0 -14 2 -19 5 -12 2 6 2 18 0 25 -3 6 -5 1 -5 -13z"/>
<path d="M3511 713 c7 -12 15 -20 18 -17 3 2 -3 12 -13 22 -17 16 -18 16 -5
-5z"/>
<path d="M4323 671 c8 -23 13 -28 15 -16 2 10 -3 25 -12 33 -14 15 -15 13 -3
-17z"/>
<path d="M4182 665 c-1 -16 3 -48 7 -70 11 -53 12 -5 2 55 -6 34 -9 37 -9 15z"/>
<path d="M3404 598 c-19 -23 -19 -23 1 -7 11 9 27 19 35 22 13 5 13 6 -1 6 -9
1 -24 -9 -35 -21z"/>
<path d="M3363 543 c-9 -16 -21 -35 -27 -43 -6 -9 -1 -7 11 4 22 18 24 18 50
1 l28 -17 -28 27 c-22 21 -26 30 -16 41 6 8 9 14 5 14 -3 0 -13 -12 -23 -27z"/>
<path d="M1673 495 c0 -38 2 -53 4 -32 2 20 2 52 0 70 -2 17 -4 1 -4 -38z"/>
<path d="M4181 444 c-1 -23 -3 -57 -6 -75 -3 -19 -3 -27 1 -19 3 8 10 24 15
35 6 13 6 35 0 60 l-9 40 -1 -41z"/>
<path d="M3211 328 c-93 -122 -202 -236 -275 -287 -70 -48 -65 -55 7 -9 40 25
50 29 58 17 5 -8 9 -20 9 -26 0 -7 4 -13 10 -13 6 0 6 9 0 26 -16 40 -13 45
52 114 34 36 84 93 111 128 l49 62 52 -35 51 -36 -43 38 c-23 21 -42 43 -42
49 0 6 9 23 21 38 11 14 18 26 15 26 -2 0 -37 -42 -75 -92z"/>
<path d="M1683 350 c0 -36 2 -50 4 -32 2 17 2 47 0 65 -2 17 -4 3 -4 -33z"/>
<path d="M3601 386 c2 -2 20 -11 39 -21 34 -17 35 -17 18 1 -9 11 -27 20 -39
21 -12 1 -20 0 -18 -1z"/>
<path d="M4202 360 c0 -14 2 -19 5 -12 2 6 2 18 0 25 -3 6 -5 1 -5 -13z"/>
<path d="M3727 323 c6 -5 14 -35 16 -68 l4 -60 -1 64 c-1 48 -5 65 -16 68 -11
3 -11 2 -3 -4z"/>
<path d="M1403 275 c0 -22 2 -30 4 -17 2 12 2 30 0 40 -3 9 -5 -1 -4 -23z"/>
<path d="M1370 152 c-36 -79 -36 -86 0 -19 17 32 30 62 28 67 -2 5 -14 -17
-28 -48z"/>
<path d="M2065 190 c-13 -6 -15 -9 -5 -9 8 0 22 4 30 9 18 12 2 12 -25 0z"/>
<path d="M4231 168 c-1 -15 -5 -30 -11 -33 -5 -3 -10 -12 -9 -18 0 -9 2 -9 6
1 7 18 23 15 23 -5 0 -9 2 -14 5 -12 2 3 1 25 -4 50 -6 30 -9 36 -10 17z"/>
<path d="M4381 114 c0 -11 3 -14 6 -6 3 7 2 16 -1 19 -3 4 -6 -2 -5 -13z"/>
<path d="M4174 78 l-19 -23 23 19 c12 11 22 21 22 23 0 8 -8 2 -26 -19z"/>
<path d="M1321 39 c-6 -18 -9 -34 -7 -36 2 -2 9 10 15 28 6 18 9 34 7 36 -2 2
-9 -10 -15 -28z"/>
<path d="M4076 44 c-4 -14 -5 -28 -3 -31 3 -2 8 8 11 23 4 14 5 28 3 31 -3 2
-8 -8 -11 -23z"/>
<path d="M2772 30 c0 -19 2 -27 5 -17 2 9 2 25 0 35 -3 9 -5 1 -5 -18z"/>
</g>
</svg>
